M48
;DRILL file {KiCad 4.0.7} date 12/31/17 13:47:57
;FORMAT={-:-/ absolute / metric / decimal}
FMAT,2
METRIC,TZ
T1C0.400
T2C1.020
%
G90
G05
M71
T1
X133.35Y-104.775
X133.35Y-119.38
X135.89Y-114.3
X138.43Y-104.775
X138.43Y-107.95
X138.43Y-114.3
X140.97Y-107.95
X140.97Y-114.3
X151.13Y-113.665
X158.115Y-129.54
X162.56Y-116.205
X163.83Y-127.635
X165.1Y-120.015
X166.37Y-120.015
X168.91Y-115.57
T2
X123.19Y-64.77
X123.19Y-67.31
X123.19Y-69.85
X123.19Y-72.39
X123.19Y-74.93
X123.19Y-77.47
X123.19Y-80.01
X123.19Y-82.55
X128.27Y-95.25
X128.27Y-130.81
X128.27Y-133.35
X130.81Y-95.25
X130.81Y-130.81
X130.81Y-133.35
X133.35Y-95.25
X133.35Y-130.81
X133.35Y-133.35
X135.89Y-95.25
X135.89Y-130.81
X135.89Y-133.35
X138.43Y-95.25
X140.97Y-95.25
X151.13Y-110.49
X153.67Y-110.49
X156.21Y-110.49
X156.21Y-123.19
X156.21Y-125.73
X158.75Y-110.49
X158.75Y-123.19
X158.75Y-125.73
X161.29Y-110.49
X161.29Y-123.19
X161.29Y-125.73
X163.83Y-110.49
X163.83Y-123.19
X163.83Y-125.73
X171.45Y-74.93
X171.45Y-77.47
X171.45Y-80.01
X171.45Y-82.55
X171.45Y-85.09
X171.45Y-87.63
X171.45Y-90.17
X171.45Y-92.71
X171.45Y-95.25
X171.45Y-97.79
X171.45Y-100.33
X171.45Y-102.87
X171.45Y-105.41
X171.45Y-107.95
X171.45Y-110.49
X171.45Y-113.03
X171.45Y-115.57
X171.45Y-118.11
X171.45Y-120.65
X171.45Y-123.19
X171.45Y-125.73
X171.45Y-128.27
X171.45Y-130.81
X171.45Y-133.35
T0
M30
