G04 #@! TF.FileFunction,Copper,L1,Top,Signal*
%FSLAX46Y46*%
G04 Gerber Fmt 4.6, Leading zero omitted, Abs format (unit mm)*
G04 Created by KiCad (PCBNEW 4.0.7) date 12/31/17 13:49:46*
%MOMM*%
%LPD*%
G01*
G04 APERTURE LIST*
%ADD10C,0.100000*%
%ADD11C,1.524000*%
%ADD12C,0.600000*%
%ADD13C,0.250000*%
G04 APERTURE END LIST*
D10*
D11*
X128270000Y-133350000D03*
X130810000Y-133350000D03*
X133350000Y-133350000D03*
X135890000Y-133350000D03*
X135890000Y-130810000D03*
X133350000Y-130810000D03*
X130810000Y-130810000D03*
X128270000Y-130810000D03*
X151130000Y-110490000D03*
X153670000Y-110490000D03*
X156210000Y-110490000D03*
X158750000Y-110490000D03*
X161290000Y-110490000D03*
X163830000Y-110490000D03*
X128270000Y-95250000D03*
X130810000Y-95250000D03*
X133350000Y-95250000D03*
X135890000Y-95250000D03*
X138430000Y-95250000D03*
X140970000Y-95250000D03*
X156210000Y-125730000D03*
X158750000Y-125730000D03*
X161290000Y-125730000D03*
X163830000Y-125730000D03*
X163830000Y-123190000D03*
X161290000Y-123190000D03*
X158750000Y-123190000D03*
X156210000Y-123190000D03*
X123190000Y-82550000D03*
X123190000Y-80010000D03*
X123190000Y-77470000D03*
X123190000Y-74930000D03*
X123190000Y-72390000D03*
X123190000Y-69850000D03*
X123190000Y-67310000D03*
X123190000Y-64770000D03*
X171450000Y-92710000D03*
X171450000Y-90170000D03*
X171450000Y-87630000D03*
X171450000Y-85090000D03*
X171450000Y-82550000D03*
X171450000Y-80010000D03*
X171450000Y-77470000D03*
X171450000Y-74930000D03*
X171450000Y-113030000D03*
X171450000Y-110490000D03*
X171450000Y-107950000D03*
X171450000Y-105410000D03*
X171450000Y-102870000D03*
X171450000Y-100330000D03*
X171450000Y-97790000D03*
X171450000Y-95250000D03*
X171450000Y-133350000D03*
X171450000Y-130810000D03*
X171450000Y-128270000D03*
X171450000Y-125730000D03*
X171450000Y-123190000D03*
X171450000Y-120650000D03*
X171450000Y-118110000D03*
X171450000Y-115570000D03*
D12*
X165100000Y-120015000D03*
X162560000Y-116205000D03*
X166370000Y-120015000D03*
X168910000Y-115570000D03*
X158115000Y-129540000D03*
X151130000Y-113665000D03*
X163830000Y-127635000D03*
X140970000Y-107950000D03*
X140970000Y-114300000D03*
X138430000Y-107950000D03*
X138430000Y-114300000D03*
X133350000Y-119380000D03*
X133350000Y-104775000D03*
X138430000Y-104775000D03*
X135890000Y-114300000D03*
D13*
X168275000Y-123190000D02*
X171450000Y-123190000D01*
X165100000Y-120015000D02*
X168275000Y-123190000D01*
X170815000Y-123190000D02*
X171450000Y-123190000D01*
X171450000Y-120650000D02*
X167005000Y-120650000D01*
X156210000Y-114935000D02*
X156210000Y-110490000D01*
X157480000Y-116205000D02*
X156210000Y-114935000D01*
X162560000Y-116205000D02*
X157480000Y-116205000D01*
X167005000Y-120650000D02*
X166370000Y-120015000D01*
X163830000Y-123190000D02*
X163830000Y-119380000D01*
X165100000Y-118110000D02*
X171450000Y-118110000D01*
X163830000Y-119380000D02*
X165100000Y-118110000D01*
X156210000Y-125730000D02*
X156210000Y-127635000D01*
X168910000Y-115570000D02*
X170815000Y-115570000D01*
X156210000Y-127635000D02*
X158115000Y-129540000D01*
X170815000Y-115570000D02*
X171450000Y-115570000D01*
X128270000Y-95250000D02*
X128270000Y-107950000D01*
X130810000Y-110490000D02*
X151130000Y-110490000D01*
X128270000Y-107950000D02*
X130810000Y-110490000D01*
X163830000Y-125730000D02*
X163830000Y-127635000D01*
X151130000Y-113665000D02*
X151130000Y-110490000D01*
X123190000Y-80010000D02*
X125730000Y-80010000D01*
X128270000Y-82550000D02*
X128270000Y-95250000D01*
X125730000Y-80010000D02*
X128270000Y-82550000D01*
X123190000Y-77470000D02*
X123190000Y-80010000D01*
X123190000Y-74930000D02*
X127000000Y-74930000D01*
X130810000Y-78740000D02*
X130810000Y-95250000D01*
X127000000Y-74930000D02*
X130810000Y-78740000D01*
X158750000Y-125730000D02*
X161290000Y-123190000D01*
X153670000Y-110490000D02*
X153670000Y-116840000D01*
X156210000Y-119380000D02*
X156210000Y-123190000D01*
X153670000Y-116840000D02*
X156210000Y-119380000D01*
X156210000Y-123190000D02*
X158750000Y-125730000D01*
X123190000Y-72390000D02*
X138430000Y-72390000D01*
X153670000Y-87630000D02*
X153670000Y-110490000D01*
X138430000Y-72390000D02*
X153670000Y-87630000D01*
X130810000Y-133350000D02*
X130810000Y-135255000D01*
X140970000Y-107950000D02*
X140970000Y-95250000D01*
X140970000Y-135255000D02*
X140970000Y-114300000D01*
X139700000Y-136525000D02*
X140970000Y-135255000D01*
X132080000Y-136525000D02*
X139700000Y-136525000D01*
X130810000Y-135255000D02*
X132080000Y-136525000D01*
X133350000Y-133350000D02*
X133350000Y-135255000D01*
X135890000Y-105410000D02*
X135890000Y-95885000D01*
X138430000Y-107950000D02*
X135890000Y-105410000D01*
X138430000Y-134620000D02*
X138430000Y-114300000D01*
X137160000Y-135890000D02*
X138430000Y-134620000D01*
X133985000Y-135890000D02*
X137160000Y-135890000D01*
X133350000Y-135255000D02*
X133985000Y-135890000D01*
X135890000Y-95885000D02*
X135890000Y-95250000D01*
X133350000Y-133350000D02*
X133350000Y-132715000D01*
X135890000Y-95885000D02*
X135890000Y-95250000D01*
X133350000Y-95250000D02*
X133350000Y-104775000D01*
X133350000Y-119380000D02*
X133350000Y-130810000D01*
X130810000Y-130810000D02*
X130810000Y-119380000D01*
X138430000Y-104775000D02*
X138430000Y-95250000D01*
X130810000Y-119380000D02*
X135890000Y-114300000D01*
M02*
