G04 #@! TF.FileFunction,Legend,Top*
%FSLAX46Y46*%
G04 Gerber Fmt 4.6, Leading zero omitted, Abs format (unit mm)*
G04 Created by KiCad (PCBNEW 4.0.7) date 12/31/17 13:49:46*
%MOMM*%
%LPD*%
G01*
G04 APERTURE LIST*
%ADD10C,0.100000*%
%ADD11C,0.150000*%
G04 APERTURE END LIST*
D10*
D11*
X127000000Y-134620000D02*
X137160000Y-134620000D01*
X137160000Y-134620000D02*
X137160000Y-129540000D01*
X137160000Y-129540000D02*
X127000000Y-129540000D01*
X127000000Y-129540000D02*
X127000000Y-134620000D01*
X149860000Y-111760000D02*
X165100000Y-111760000D01*
X165100000Y-111760000D02*
X165100000Y-109220000D01*
X165100000Y-109220000D02*
X149860000Y-109220000D01*
X149860000Y-109220000D02*
X149860000Y-111760000D01*
X127000000Y-96520000D02*
X142240000Y-96520000D01*
X142240000Y-96520000D02*
X142240000Y-93980000D01*
X142240000Y-93980000D02*
X127000000Y-93980000D01*
X127000000Y-93980000D02*
X127000000Y-96520000D01*
X154940000Y-127000000D02*
X165100000Y-127000000D01*
X165100000Y-127000000D02*
X165100000Y-121920000D01*
X165100000Y-121920000D02*
X154940000Y-121920000D01*
X154940000Y-121920000D02*
X154940000Y-127000000D01*
X124460000Y-83820000D02*
X124460000Y-63500000D01*
X124460000Y-63500000D02*
X121920000Y-63500000D01*
X121920000Y-63500000D02*
X121920000Y-83820000D01*
X121920000Y-83820000D02*
X124460000Y-83820000D01*
X172720000Y-93980000D02*
X172720000Y-73660000D01*
X172720000Y-73660000D02*
X170180000Y-73660000D01*
X170180000Y-73660000D02*
X170180000Y-93980000D01*
X170180000Y-93980000D02*
X172720000Y-93980000D01*
X172720000Y-114300000D02*
X172720000Y-93980000D01*
X172720000Y-93980000D02*
X170180000Y-93980000D01*
X170180000Y-93980000D02*
X170180000Y-114300000D01*
X170180000Y-114300000D02*
X172720000Y-114300000D01*
X172720000Y-134620000D02*
X172720000Y-114300000D01*
X172720000Y-114300000D02*
X170180000Y-114300000D01*
X170180000Y-114300000D02*
X170180000Y-134620000D01*
X170180000Y-134620000D02*
X172720000Y-134620000D01*
X125396667Y-131532381D02*
X125396667Y-132246667D01*
X125349047Y-132389524D01*
X125253809Y-132484762D01*
X125110952Y-132532381D01*
X125015714Y-132532381D01*
X126349048Y-131532381D02*
X125872857Y-131532381D01*
X125825238Y-132008571D01*
X125872857Y-131960952D01*
X125968095Y-131913333D01*
X126206191Y-131913333D01*
X126301429Y-131960952D01*
X126349048Y-132008571D01*
X126396667Y-132103810D01*
X126396667Y-132341905D01*
X126349048Y-132437143D01*
X126301429Y-132484762D01*
X126206191Y-132532381D01*
X125968095Y-132532381D01*
X125872857Y-132484762D01*
X125825238Y-132437143D01*
X156718095Y-107402381D02*
X156718095Y-108211905D01*
X156765714Y-108307143D01*
X156813333Y-108354762D01*
X156908571Y-108402381D01*
X157099048Y-108402381D01*
X157194286Y-108354762D01*
X157241905Y-108307143D01*
X157289524Y-108211905D01*
X157289524Y-107402381D01*
X157670476Y-107402381D02*
X158289524Y-107402381D01*
X157956190Y-107783333D01*
X158099048Y-107783333D01*
X158194286Y-107830952D01*
X158241905Y-107878571D01*
X158289524Y-107973810D01*
X158289524Y-108211905D01*
X158241905Y-108307143D01*
X158194286Y-108354762D01*
X158099048Y-108402381D01*
X157813333Y-108402381D01*
X157718095Y-108354762D01*
X157670476Y-108307143D01*
X133858095Y-92162381D02*
X133858095Y-92971905D01*
X133905714Y-93067143D01*
X133953333Y-93114762D01*
X134048571Y-93162381D01*
X134239048Y-93162381D01*
X134334286Y-93114762D01*
X134381905Y-93067143D01*
X134429524Y-92971905D01*
X134429524Y-92162381D01*
X134858095Y-92257619D02*
X134905714Y-92210000D01*
X135000952Y-92162381D01*
X135239048Y-92162381D01*
X135334286Y-92210000D01*
X135381905Y-92257619D01*
X135429524Y-92352857D01*
X135429524Y-92448095D01*
X135381905Y-92590952D01*
X134810476Y-93162381D01*
X135429524Y-93162381D01*
X159258095Y-120102381D02*
X159258095Y-120911905D01*
X159305714Y-121007143D01*
X159353333Y-121054762D01*
X159448571Y-121102381D01*
X159639048Y-121102381D01*
X159734286Y-121054762D01*
X159781905Y-121007143D01*
X159829524Y-120911905D01*
X159829524Y-120102381D01*
X160829524Y-121102381D02*
X160258095Y-121102381D01*
X160543809Y-121102381D02*
X160543809Y-120102381D01*
X160448571Y-120245238D01*
X160353333Y-120340476D01*
X160258095Y-120388095D01*
X120102381Y-73993333D02*
X120816667Y-73993333D01*
X120959524Y-74040953D01*
X121054762Y-74136191D01*
X121102381Y-74279048D01*
X121102381Y-74374286D01*
X120435714Y-73088571D02*
X121102381Y-73088571D01*
X120054762Y-73326667D02*
X120769048Y-73564762D01*
X120769048Y-72945714D01*
X173442381Y-84153333D02*
X174156667Y-84153333D01*
X174299524Y-84200953D01*
X174394762Y-84296191D01*
X174442381Y-84439048D01*
X174442381Y-84534286D01*
X173442381Y-83772381D02*
X173442381Y-83153333D01*
X173823333Y-83486667D01*
X173823333Y-83343809D01*
X173870952Y-83248571D01*
X173918571Y-83200952D01*
X174013810Y-83153333D01*
X174251905Y-83153333D01*
X174347143Y-83200952D01*
X174394762Y-83248571D01*
X174442381Y-83343809D01*
X174442381Y-83629524D01*
X174394762Y-83724762D01*
X174347143Y-83772381D01*
X173442381Y-104473333D02*
X174156667Y-104473333D01*
X174299524Y-104520953D01*
X174394762Y-104616191D01*
X174442381Y-104759048D01*
X174442381Y-104854286D01*
X173537619Y-104044762D02*
X173490000Y-103997143D01*
X173442381Y-103901905D01*
X173442381Y-103663809D01*
X173490000Y-103568571D01*
X173537619Y-103520952D01*
X173632857Y-103473333D01*
X173728095Y-103473333D01*
X173870952Y-103520952D01*
X174442381Y-104092381D01*
X174442381Y-103473333D01*
X173442381Y-124793333D02*
X174156667Y-124793333D01*
X174299524Y-124840953D01*
X174394762Y-124936191D01*
X174442381Y-125079048D01*
X174442381Y-125174286D01*
X174442381Y-123793333D02*
X174442381Y-124364762D01*
X174442381Y-124079048D02*
X173442381Y-124079048D01*
X173585238Y-124174286D01*
X173680476Y-124269524D01*
X173728095Y-124364762D01*
M02*
